<svg version="1.1" xmlns="http://www.w3.org/2000/svg" xmlns:xlink="http://www.w3.org/1999/xlink" width="2548" height="2132"><defs/><g><g transform="translate(2,2) scale(1,1)"><path fill="none" stroke="#000000" d="M 8 8 L 2536 8 L 2536 2120 L 8 2120 L 8 8" stroke-miterlimit="10"/></g><g transform="translate(2,2) scale(1,1)"><path fill="#d8f2ff" stroke="none" d="M 8 8 L 8 30 L 166.37158203125 30 L 177.37158203125 19 L 177.37158203125 8 L 8 8"/></g><g transform="translate(2,2) scale(1,1)"><path fill="none" stroke="#000000" d="M 8 8 L 8 30 L 166.37158203125 30 L 177.37158203125 19 L 177.37158203125 8 L 8 8 L 8 8" stroke-miterlimit="10"/></g><g transform="translate(2,2) scale(1,1)"><g><path fill="none" stroke="none"/><text fill="#000000" stroke="none" font-family="Arial" font-size="13px" font-style="normal" font-weight="normal" text-decoration="none" x="32.72998046875" y="24">ajouter nouveau cours</text></g></g><g transform="translate(2,2) scale(1,1)"><g><path fill="none" stroke="none"/><text fill="#000000" stroke="none" font-family="Arial" font-size="13px" font-style="normal" font-weight="bold" text-decoration="none" x="12.279541015625" y="24">sd</text></g></g><g transform="translate(2,2) scale(1,1)"><rect fill="#C0C0C0" stroke="none" x="79" y="47" width="110.1181640625" height="39" opacity="0.2"/></g><g transform="translate(2,2) scale(1,1)"><rect fill="#ebffd8" stroke="none" x="72" y="40" width="110.1181640625" height="39"/></g><g transform="translate(2,2) scale(1,1)"><path fill="none" stroke="#000000" d="M 72 40 L 182.1181640625 40 L 182.1181640625 79 L 72 79 L 72 40 Z Z" stroke-miterlimit="10"/></g><g transform="translate(2,2) scale(1,1)"><g><path fill="none" stroke="none"/><text fill="#000000" stroke="none" font-family="Arial" font-size="13px" font-style="normal" font-weight="normal" text-decoration="none" x="101.043212890625" y="56">«Acteur»</text></g></g><g transform="translate(2,2) scale(1,1)"><g><path fill="none" stroke="none"/><text fill="#000000" stroke="none" font-family="Arial" font-size="13px" font-style="normal" font-weight="bold" text-decoration="none" x="106.838623046875" y="71">Admin</text></g></g><g transform="translate(2,2) scale(1,1)"><path fill="none" stroke="#000000" d="M 128.5 80 L 128.5 2072" stroke-miterlimit="10" stroke-dasharray="3"/></g><g transform="translate(2,2) scale(1,1)"><rect fill="#C0C0C0" stroke="none" x="463" y="47" width="71.736328125" height="39" opacity="0.2"/></g><g transform="translate(2,2) scale(1,1)"><rect fill="#d8f2ff" stroke="none" x="456" y="40" width="71.736328125" height="39"/></g><g transform="translate(2,2) scale(1,1)"><path fill="none" stroke="#000000" d="M 456 40 L 527.736328125 40 L 527.736328125 79 L 456 79 L 456 40 Z Z" stroke-miterlimit="10"/></g><g transform="translate(2,2) scale(1,1)"><g><path fill="none" stroke="none"/><text fill="#000000" stroke="none" font-family="Arial" font-size="13px" font-style="normal" font-weight="bold" text-decoration="none" x="469.587890625" y="58">v: View</text></g></g><g transform="translate(2,2) scale(1,1)"><path fill="none" stroke="#000000" d="M 492.5 80 L 492.5 2080" stroke-miterlimit="10" stroke-dasharray="3"/></g><g transform="translate(2,2) scale(1,1)"><rect fill="#C0C0C0" stroke="none" x="743" y="47" width="96.28271484375" height="39" opacity="0.2"/></g><g transform="translate(2,2) scale(1,1)"><rect fill="#d8f2ff" stroke="none" x="736" y="40" width="96.28271484375" height="39"/></g><g transform="translate(2,2) scale(1,1)"><path fill="none" stroke="#000000" d="M 736 40 L 832.28271484375 40 L 832.28271484375 79 L 736 79 L 736 40 Z Z" stroke-miterlimit="10"/></g><g transform="translate(2,2) scale(1,1)"><g><path fill="none" stroke="none"/><text fill="#000000" stroke="none" font-family="Arial" font-size="13px" font-style="normal" font-weight="bold" text-decoration="none" x="745.5" y="58">c: Controller</text></g></g><g transform="translate(2,2) scale(1,1)"><path fill="none" stroke="#000000" d="M 785.5 80 L 785.5 2072" stroke-miterlimit="10" stroke-dasharray="3"/></g><g transform="translate(2,2) scale(1,1)"><rect fill="#C0C0C0" stroke="none" x="1319" y="47" width="99.90087890625" height="39" opacity="0.2"/></g><g transform="translate(2,2) scale(1,1)"><rect fill="#d8f2ff" stroke="none" x="1312" y="40" width="99.90087890625" height="39"/></g><g transform="translate(2,2) scale(1,1)"><path fill="none" stroke="#000000" d="M 1312 40 L 1411.90087890625 40 L 1411.90087890625 79 L 1312 79 L 1312 40 Z Z" stroke-miterlimit="10"/></g><g transform="translate(2,2) scale(1,1)"><g><path fill="none" stroke="none"/><text fill="#000000" stroke="none" font-family="Arial" font-size="13px" font-style="normal" font-weight="bold" text-decoration="none" x="1321.5" y="58">cours: Cours</text></g></g><g transform="translate(2,2) scale(1,1)"><path fill="none" stroke="#000000" d="M 1362.5 80 L 1362.5 2056" stroke-miterlimit="10" stroke-dasharray="3"/></g><g transform="translate(2,2) scale(1,1)"><rect fill="#C0C0C0" stroke="none" x="1047" y="47" width="74.61181640625" height="39" opacity="0.2"/></g><g transform="translate(2,2) scale(1,1)"><rect fill="#d8f2ff" stroke="none" x="1040" y="40" width="74.61181640625" height="39"/></g><g transform="translate(2,2) scale(1,1)"><path fill="none" stroke="#000000" d="M 1040 40 L 1114.61181640625 40 L 1114.61181640625 79 L 1040 79 L 1040 40 Z Z" stroke-miterlimit="10"/></g><g transform="translate(2,2) scale(1,1)"><g><path fill="none" stroke="none"/><text fill="#000000" stroke="none" font-family="Arial" font-size="13px" font-style="normal" font-weight="bold" text-decoration="none" x="1049.5" y="58">a: Admin</text></g></g><g transform="translate(2,2) scale(1,1)"><path fill="none" stroke="#000000" d="M 1078.5 80 L 1078.5 2056" stroke-miterlimit="10" stroke-dasharray="3"/></g><g transform="translate(2,2) scale(1,1)"><rect fill="#C0C0C0" stroke="none" x="2359" y="47" width="124.47900390625" height="39" opacity="0.2"/></g><g transform="translate(2,2) scale(1,1)"><rect fill="#d8f2ff" stroke="none" x="2352" y="40" width="124.47900390625" height="39"/></g><g transform="translate(2,2) scale(1,1)"><path fill="none" stroke="#000000" d="M 2352 40 L 2476.47900390625 40 L 2476.47900390625 79 L 2352 79 L 2352 40 Z Z" stroke-miterlimit="10"/></g><g transform="translate(2,2) scale(1,1)"><g><path fill="none" stroke="none"/><text fill="#000000" stroke="none" font-family="Arial" font-size="13px" font-style="normal" font-weight="bold" text-decoration="none" x="2361.5" y="58">base des donnes</text></g></g><g transform="translate(2,2) scale(1,1)"><path fill="none" stroke="#000000" d="M 2415.5 80 L 2415.5 2040" stroke-miterlimit="10" stroke-dasharray="3"/></g><g transform="translate(2,2) scale(1,1)"><rect fill="#C0C0C0" stroke="none" x="1471" y="47" width="209.734375" height="39" opacity="0.2"/></g><g transform="translate(2,2) scale(1,1)"><rect fill="#d8f2ff" stroke="none" x="1464" y="40" width="209.734375" height="39"/></g><g transform="translate(2,2) scale(1,1)"><path fill="none" stroke="#000000" d="M 1464 40 L 1673.734375 40 L 1673.734375 79 L 1464 79 L 1464 40 Z Z" stroke-miterlimit="10"/></g><g transform="translate(2,2) scale(1,1)"><g><path fill="none" stroke="none"/><text fill="#000000" stroke="none" font-family="Arial" font-size="13px" font-style="normal" font-weight="bold" text-decoration="none" x="1473.5" y="58">chapitres: ArrayList&lt;Chapitre&gt;</text></g></g><g transform="translate(2,2) scale(1,1)"><path fill="none" stroke="#000000" d="M 1569.5 80 L 1569.5 2048" stroke-miterlimit="10" stroke-dasharray="3"/></g><g transform="translate(2,2) scale(1,1)"><rect fill="#C0C0C0" stroke="none" x="1711" y="47" width="137.47265625" height="39" opacity="0.2"/></g><g transform="translate(2,2) scale(1,1)"><rect fill="#d8f2ff" stroke="none" x="1704" y="40" width="137.47265625" height="39"/></g><g transform="translate(2,2) scale(1,1)"><path fill="none" stroke="#000000" d="M 1704 40 L 1841.47265625 40 L 1841.47265625 79 L 1704 79 L 1704 40 Z Z" stroke-miterlimit="10"/></g><g transform="translate(2,2) scale(1,1)"><g><path fill="none" stroke="none"/><text fill="#000000" stroke="none" font-family="Arial" font-size="13px" font-style="normal" font-weight="bold" text-decoration="none" x="1713.5" y="58">chapitre: Chapitres</text></g></g><g transform="translate(2,2) scale(1,1)"><path fill="none" stroke="#000000" d="M 1773.5 80 L 1773.5 2040" stroke-miterlimit="10" stroke-dasharray="3"/></g><g transform="translate(2,2) scale(1,1)"><rect fill="#C0C0C0" stroke="none" x="1887" y="47" width="198.89892578125" height="39" opacity="0.2"/></g><g transform="translate(2,2) scale(1,1)"><rect fill="#d8f2ff" stroke="none" x="1880" y="40" width="198.89892578125" height="39"/></g><g transform="translate(2,2) scale(1,1)"><path fill="none" stroke="#000000" d="M 1880 40 L 2078.89892578125 40 L 2078.89892578125 79 L 1880 79 L 1880 40 Z Z" stroke-miterlimit="10"/></g><g transform="translate(2,2) scale(1,1)"><g><path fill="none" stroke="none"/><text fill="#000000" stroke="none" font-family="Arial" font-size="13px" font-style="normal" font-weight="bold" text-decoration="none" x="1889.5" y="58">sections: ArrayList&lt;Section&gt;</text></g></g><g transform="translate(2,2) scale(1,1)"><path fill="none" stroke="#000000" d="M 1980.5 80 L 1980.5 2048" stroke-miterlimit="10" stroke-dasharray="3"/></g><g transform="translate(2,2) scale(1,1)"><rect fill="#C0C0C0" stroke="none" x="2127" y="47" width="119.4072265625" height="39" opacity="0.2"/></g><g transform="translate(2,2) scale(1,1)"><rect fill="#d8f2ff" stroke="none" x="2120" y="40" width="119.4072265625" height="39"/></g><g transform="translate(2,2) scale(1,1)"><path fill="none" stroke="#000000" d="M 2120 40 L 2239.4072265625 40 L 2239.4072265625 79 L 2120 79 L 2120 40 Z Z" stroke-miterlimit="10"/></g><g transform="translate(2,2) scale(1,1)"><g><path fill="none" stroke="none"/><text fill="#000000" stroke="none" font-family="Arial" font-size="13px" font-style="normal" font-weight="bold" text-decoration="none" x="2129.5" y="58">section: Section</text></g></g><g transform="translate(2,2) scale(1,1)"><path fill="none" stroke="#000000" d="M 2180.5 80 L 2180.5 2040" stroke-miterlimit="10" stroke-dasharray="3"/></g><g transform="translate(2,2) scale(1,1)"><path fill="none" stroke="#000000" d="M 128 232 L 485 232" stroke-miterlimit="10"/></g><g transform="translate(2,2) scale(1,1)"><path fill="#000000" stroke="none" d="M 474.83732514237585 236.209517756016 L 485 232 L 474.83732514237585 227.790482243984"/></g><g transform="translate(2,2) scale(1,1)"><path fill="none" stroke="#000000" d="M 474.83732514237585 236.209517756016 L 485 232 L 474.83732514237585 227.790482243984 L 474.83732514237585 236.209517756016" stroke-miterlimit="10"/></g><g transform="translate(2,2) scale(1,1)"><g><path fill="none" stroke="none"/><text fill="#000000" stroke="none" font-family="Arial" font-size="13px" font-style="normal" font-weight="normal" text-decoration="none" x="223.5" y="227">1 : saisir le contenu du cours</text></g></g><g transform="translate(2,2) scale(1,1)"><rect fill="#ffff91" stroke="none" x="485" y="232" width="13" height="1752"/></g><g transform="translate(2,2) scale(1,1)"><path fill="none" stroke="#000000" d="M 485 232 L 498 232 L 498 1984 L 485 1984 L 485 232 Z Z" stroke-miterlimit="10"/></g><g transform="translate(2,2) scale(1,1)"><path fill="none" stroke="#000000" d="M 498 272 L 778 272" stroke-miterlimit="10"/></g><g transform="translate(2,2) scale(1,1)"><path fill="#000000" stroke="none" d="M 767.8373251423759 276.209517756016 L 778 272 L 767.8373251423758 267.790482243984"/></g><g transform="translate(2,2) scale(1,1)"><path fill="none" stroke="#000000" d="M 767.8373251423759 276.209517756016 L 778 272 L 767.8373251423758 267.790482243984 L 767.8373251423759 276.209517756016" stroke-miterlimit="10"/></g><g transform="translate(2,2) scale(1,1)"><g><path fill="none" stroke="none"/><text fill="#000000" stroke="none" font-family="Arial" font-size="13px" font-style="normal" font-weight="normal" text-decoration="none" x="571.83544921875" y="267">2 : ajouterCours(cours)</text></g></g><g transform="translate(2,2) scale(1,1)"><rect fill="#ffff91" stroke="none" x="778" y="272" width="13" height="1688"/></g><g transform="translate(2,2) scale(1,1)"><path fill="none" stroke="#000000" d="M 778 272 L 791 272 L 791 1960 L 778 1960 L 778 272 Z Z" stroke-miterlimit="10"/></g><g transform="translate(2,2) scale(1,1)"><path fill="none" stroke="#000000" d="M 791 333 L 1071 333" stroke-miterlimit="10"/></g><g transform="translate(2,2) scale(1,1)"><path fill="#000000" stroke="none" d="M 1060.837325142376 337.209517756016 L 1071 333 L 1060.837325142376 328.790482243984"/></g><g transform="translate(2,2) scale(1,1)"><path fill="none" stroke="#000000" d="M 1060.837325142376 337.209517756016 L 1071 333 L 1060.837325142376 328.790482243984 L 1060.837325142376 337.209517756016" stroke-miterlimit="10"/></g><g transform="translate(2,2) scale(1,1)"><g><path fill="none" stroke="none"/><text fill="#000000" stroke="none" font-family="Arial" font-size="13px" font-style="normal" font-weight="normal" text-decoration="none" x="864.384033203125" y="328">3 : ajouterCours(cours)</text></g></g><g transform="translate(2,2) scale(1,1)"><rect fill="#ffff91" stroke="none" x="1071" y="333" width="13" height="1587"/></g><g transform="translate(2,2) scale(1,1)"><path fill="none" stroke="#000000" d="M 1071 333 L 1084 333 L 1084 1920 L 1071 1920 L 1071 333 Z Z" stroke-miterlimit="10"/></g><g transform="translate(2,2) scale(1,1)"><path fill="none" stroke="#000000" d="M 1084 352 L 1114 352 L 1114 372 L 1091 372" stroke-miterlimit="10"/></g><g transform="translate(2,2) scale(1,1)"><path fill="#000000" stroke="none" d="M 1101.162674857624 367.790482243984 L 1091 372 L 1101.162674857624 376.209517756016"/></g><g transform="translate(2,2) scale(1,1)"><path fill="none" stroke="#000000" d="M 1101.162674857624 367.790482243984 L 1091 372 L 1101.162674857624 376.209517756016 L 1101.162674857624 367.790482243984" stroke-miterlimit="10"/></g><g transform="translate(2,2) scale(1,1)"><g><path fill="none" stroke="none"/><text fill="#000000" stroke="none" font-family="Arial" font-size="13px" font-style="normal" font-weight="normal" text-decoration="none" x="1126.5" y="366">4 : addCours(cours)</text></g></g><g transform="translate(2,2) scale(1,1)"><rect fill="#a3ffa3" stroke="none" x="1078" y="372" width="13" height="28"/></g><g transform="translate(2,2) scale(1,1)"><path fill="none" stroke="#000000" d="M 1078 372 L 1091 372 L 1091 400 L 1078 400 L 1078 372 Z Z" stroke-miterlimit="10"/></g><g transform="translate(2,2) scale(1,1)"><path fill="none" stroke="#000000" d="M 1084 432 L 1355 432" stroke-miterlimit="10"/></g><g transform="translate(2,2) scale(1,1)"><path fill="#000000" stroke="none" d="M 1344.837325142376 436.209517756016 L 1355 432 L 1344.837325142376 427.790482243984"/></g><g transform="translate(2,2) scale(1,1)"><path fill="none" stroke="#000000" d="M 1344.837325142376 436.209517756016 L 1355 432 L 1344.837325142376 427.790482243984 L 1344.837325142376 436.209517756016" stroke-miterlimit="10"/></g><g transform="translate(2,2) scale(1,1)"><g><path fill="none" stroke="none"/><text fill="#000000" stroke="none" font-family="Arial" font-size="13px" font-style="normal" font-weight="normal" text-decoration="none" x="1168.5" y="427">5 : setAdmin(this)</text></g></g><g transform="translate(2,2) scale(1,1)"><rect fill="#ffff91" stroke="none" x="1355" y="432" width="13" height="28"/></g><g transform="translate(2,2) scale(1,1)"><path fill="none" stroke="#000000" d="M 1355 432 L 1368 432 L 1368 460 L 1355 460 L 1355 432 Z Z" stroke-miterlimit="10"/></g><g transform="translate(2,2) scale(1,1)"><path fill="none" stroke="#000000" d="M 1084 488 L 1355 488" stroke-miterlimit="10"/></g><g transform="translate(2,2) scale(1,1)"><path fill="#000000" stroke="none" d="M 1344.837325142376 492.209517756016 L 1355 488 L 1344.837325142376 483.790482243984"/></g><g transform="translate(2,2) scale(1,1)"><path fill="none" stroke="#000000" d="M 1344.837325142376 492.209517756016 L 1355 488 L 1344.837325142376 483.790482243984 L 1344.837325142376 492.209517756016" stroke-miterlimit="10"/></g><g transform="translate(2,2) scale(1,1)"><g><path fill="none" stroke="none"/><text fill="#000000" stroke="none" font-family="Arial" font-size="13px" font-style="normal" font-weight="normal" text-decoration="none" x="1155.114990234375" y="483">6 : enregistrerCours( )</text></g></g><g transform="translate(2,2) scale(1,1)"><rect fill="#ffff91" stroke="none" x="1355" y="488" width="13" height="1424"/></g><g transform="translate(2,2) scale(1,1)"><path fill="none" stroke="#000000" d="M 1355 488 L 1368 488 L 1368 1912 L 1355 1912 L 1355 488 Z Z" stroke-miterlimit="10"/></g><g transform="translate(2,2) scale(1,1)"><path fill="none" stroke="#000000" d="M 1368 512 L 2408 512" stroke-miterlimit="10"/></g><g transform="translate(2,2) scale(1,1)"><path fill="#000000" stroke="none" d="M 2397.837325142376 516.209517756016 L 2408 512 L 2397.837325142376 507.790482243984"/></g><g transform="translate(2,2) scale(1,1)"><path fill="none" stroke="#000000" d="M 2397.837325142376 516.209517756016 L 2408 512 L 2397.837325142376 507.790482243984 L 2397.837325142376 516.209517756016" stroke-miterlimit="10"/></g><g transform="translate(2,2) scale(1,1)"><g><path fill="none" stroke="none"/><text fill="#000000" stroke="none" font-family="Arial" font-size="13px" font-style="normal" font-weight="normal" text-decoration="none" x="1825.5" y="507">7 : inserer les donnes</text></g></g><g transform="translate(2,2) scale(1,1)"><rect fill="#ffff91" stroke="none" x="2408" y="512" width="13" height="408"/></g><g transform="translate(2,2) scale(1,1)"><path fill="none" stroke="#000000" d="M 2408 512 L 2421 512 L 2421 920 L 2408 920 L 2408 512 Z Z" stroke-miterlimit="10"/></g><g transform="translate(2,2) scale(1,1)"><path fill="none" stroke="#000000" d="M 2408 608 L 1368 608" stroke-miterlimit="10" stroke-dasharray="3"/></g><g transform="translate(2,2) scale(1,1)"><path fill="none" stroke="#000000" d="M 1378.162674857624 603.790482243984 L 1368 608 L 1378.162674857624 612.209517756016" stroke-miterlimit="10"/></g><g transform="translate(2,2) scale(1,1)"><g><path fill="none" stroke="none"/><text fill="#000000" stroke="none" font-family="Arial" font-size="13px" font-style="normal" font-weight="normal" text-decoration="none" x="1784.114990234375" y="602">8 : les donne ne sont pas enregistre</text></g></g><g transform="translate(2,2) scale(1,1)"><path fill="none" stroke="#000000" d="M 1355 640 L 1084 640" stroke-miterlimit="10" stroke-dasharray="3"/></g><g transform="translate(2,2) scale(1,1)"><path fill="none" stroke="#000000" d="M 1094.162674857624 635.790482243984 L 1084 640 L 1094.162674857624 644.209517756016" stroke-miterlimit="10"/></g><g transform="translate(2,2) scale(1,1)"><g><path fill="none" stroke="none"/><text fill="#000000" stroke="none" font-family="Arial" font-size="13px" font-style="normal" font-weight="normal" text-decoration="none" x="1195.114990234375" y="655">9 : false</text></g></g><g transform="translate(2,2) scale(1,1)"><path fill="none" stroke="#000000" d="M 1071 688 L 791 688" stroke-miterlimit="10" stroke-dasharray="3"/></g><g transform="translate(2,2) scale(1,1)"><path fill="none" stroke="#000000" d="M 801.1626748576241 683.790482243984 L 791 688 L 801.1626748576241 692.209517756016" stroke-miterlimit="10"/></g><g transform="translate(2,2) scale(1,1)"><g><path fill="none" stroke="none"/><text fill="#000000" stroke="none" font-family="Arial" font-size="13px" font-style="normal" font-weight="normal" text-decoration="none" x="903.5" y="703">10 : false</text></g></g><g transform="translate(2,2) scale(1,1)"><path fill="none" stroke="#000000" d="M 778 728 L 498 728" stroke-miterlimit="10" stroke-dasharray="3"/></g><g transform="translate(2,2) scale(1,1)"><path fill="none" stroke="#000000" d="M 508.16267485762415 723.790482243984 L 498 728 L 508.16267485762415 732.209517756016" stroke-miterlimit="10"/></g><g transform="translate(2,2) scale(1,1)"><g><path fill="none" stroke="none"/><text fill="#000000" stroke="none" font-family="Arial" font-size="13px" font-style="normal" font-weight="normal" text-decoration="none" x="610.982421875" y="743">11 : false</text></g></g><g transform="translate(2,2) scale(1,1)"><path fill="none" stroke="#000000" d="M 485 776 L 128 776" stroke-miterlimit="10" stroke-dasharray="3"/></g><g transform="translate(2,2) scale(1,1)"><path fill="none" stroke="#000000" d="M 138.16267485762415 771.790482243984 L 128 776 L 138.16267485762415 780.209517756016" stroke-miterlimit="10"/></g><g transform="translate(2,2) scale(1,1)"><g><path fill="none" stroke="none"/><text fill="#000000" stroke="none" font-family="Arial" font-size="13px" font-style="normal" font-weight="normal" text-decoration="none" x="143.5" y="791">12 : "le cours n'est pas enregistrer un erreu est servenu"</text></g></g><g transform="translate(2,2) scale(1,1)"><path fill="none" stroke="#000000" d="M 2408 896 L 1368 896" stroke-miterlimit="10" stroke-dasharray="3"/></g><g transform="translate(2,2) scale(1,1)"><path fill="none" stroke="#000000" d="M 1378.162674857624 891.790482243984 L 1368 896 L 1378.162674857624 900.209517756016" stroke-miterlimit="10"/></g><g transform="translate(2,2) scale(1,1)"><g><path fill="none" stroke="none"/><text fill="#000000" stroke="none" font-family="Arial" font-size="13px" font-style="normal" font-weight="normal" text-decoration="none" x="1810.5" y="911">13 : les donnes enregistrer</text></g></g><g transform="translate(2,2) scale(1,1)"><path fill="none" stroke="#000000" d="M 1368 981 L 1562 981" stroke-miterlimit="10"/></g><g transform="translate(2,2) scale(1,1)"><path fill="#000000" stroke="none" d="M 1551.837325142376 985.209517756016 L 1562 981 L 1551.837325142376 976.790482243984"/></g><g transform="translate(2,2) scale(1,1)"><path fill="none" stroke="#000000" d="M 1551.837325142376 985.209517756016 L 1562 981 L 1551.837325142376 976.790482243984 L 1551.837325142376 985.209517756016" stroke-miterlimit="10"/></g><g transform="translate(2,2) scale(1,1)"><g><path fill="none" stroke="none"/><text fill="#000000" stroke="none" font-family="Arial" font-size="13px" font-style="normal" font-weight="normal" text-decoration="none" x="1366.5" y="976">14 : chapitre = getChapitre(indice)</text></g></g><g transform="translate(2,2) scale(1,1)"><rect fill="#ffff91" stroke="none" x="1562" y="981" width="13" height="28"/></g><g transform="translate(2,2) scale(1,1)"><path fill="none" stroke="#000000" d="M 1562 981 L 1575 981 L 1575 1009 L 1562 1009 L 1562 981 Z Z" stroke-miterlimit="10"/></g><g transform="translate(2,2) scale(1,1)"><path fill="none" stroke="#000000" d="M 1562 1008 L 1368 1008" stroke-miterlimit="10" stroke-dasharray="3"/></g><g transform="translate(2,2) scale(1,1)"><path fill="none" stroke="#000000" d="M 1378.162674857624 1003.790482243984 L 1368 1008 L 1378.162674857624 1012.209517756016" stroke-miterlimit="10"/></g><g transform="translate(2,2) scale(1,1)"><g><path fill="none" stroke="none"/><text fill="#000000" stroke="none" font-family="Arial" font-size="13px" font-style="normal" font-weight="normal" text-decoration="none" x="1430.5" y="1023">15 : chipitre</text></g></g><g transform="translate(2,2) scale(1,1)"><path fill="none" stroke="#000000" d="M 1368 1040 L 1766 1040" stroke-miterlimit="10"/></g><g transform="translate(2,2) scale(1,1)"><path fill="#000000" stroke="none" d="M 1755.837325142376 1044.2095177560159 L 1766 1040 L 1755.837325142376 1035.7904822439841"/></g><g transform="translate(2,2) scale(1,1)"><path fill="none" stroke="#000000" d="M 1755.837325142376 1044.2095177560159 L 1766 1040 L 1755.837325142376 1035.7904822439841 L 1755.837325142376 1044.2095177560159" stroke-miterlimit="10"/></g><g transform="translate(2,2) scale(1,1)"><g><path fill="none" stroke="none"/><text fill="#000000" stroke="none" font-family="Arial" font-size="13px" font-style="normal" font-weight="normal" text-decoration="none" x="1517.5" y="1035">16 : enregistrer( )</text></g></g><g transform="translate(2,2) scale(1,1)"><rect fill="#ffff91" stroke="none" x="1766" y="1040" width="13" height="760"/></g><g transform="translate(2,2) scale(1,1)"><path fill="none" stroke="#000000" d="M 1766 1040 L 1779 1040 L 1779 1800 L 1766 1800 L 1766 1040 Z Z" stroke-miterlimit="10"/></g><g transform="translate(2,2) scale(1,1)"><path fill="none" stroke="#000000" d="M 1779 1064 L 2408 1064" stroke-miterlimit="10"/></g><g transform="translate(2,2) scale(1,1)"><path fill="#000000" stroke="none" d="M 2397.837325142376 1068.2095177560159 L 2408 1064 L 2397.837325142376 1059.7904822439841"/></g><g transform="translate(2,2) scale(1,1)"><path fill="none" stroke="#000000" d="M 2397.837325142376 1068.2095177560159 L 2408 1064 L 2397.837325142376 1059.7904822439841 L 2397.837325142376 1068.2095177560159" stroke-miterlimit="10"/></g><g transform="translate(2,2) scale(1,1)"><g><path fill="none" stroke="none"/><text fill="#000000" stroke="none" font-family="Arial" font-size="13px" font-style="normal" font-weight="normal" text-decoration="none" x="2027.5" y="1059">17 : inserer les donnes</text></g></g><g transform="translate(2,2) scale(1,1)"><rect fill="#ffff91" stroke="none" x="2408" y="1064" width="13" height="232"/></g><g transform="translate(2,2) scale(1,1)"><path fill="none" stroke="#000000" d="M 2408 1064 L 2421 1064 L 2421 1296 L 2408 1296 L 2408 1064 Z Z" stroke-miterlimit="10"/></g><g transform="translate(2,2) scale(1,1)"><path fill="none" stroke="#000000" d="M 2408 1117 L 1779 1117" stroke-miterlimit="10" stroke-dasharray="3"/></g><g transform="translate(2,2) scale(1,1)"><path fill="none" stroke="#000000" d="M 1789.162674857624 1112.7904822439841 L 1779 1117 L 1789.162674857624 1121.2095177560159" stroke-miterlimit="10"/></g><g transform="translate(2,2) scale(1,1)"><g><path fill="none" stroke="none"/><text fill="#000000" stroke="none" font-family="Arial" font-size="13px" font-style="normal" font-weight="normal" text-decoration="none" x="1985.5" y="1132">18 : les donne ne sont pas enregistre</text></g></g><g transform="translate(2,2) scale(1,1)"><path fill="none" stroke="#000000" d="M 1766 1136 L 1368 1136" stroke-miterlimit="10" stroke-dasharray="3"/></g><g transform="translate(2,2) scale(1,1)"><path fill="none" stroke="#000000" d="M 1378.162674857624 1131.7904822439841 L 1368 1136 L 1378.162674857624 1140.2095177560159" stroke-miterlimit="10"/></g><g transform="translate(2,2) scale(1,1)"><g><path fill="none" stroke="none"/><text fill="#000000" stroke="none" font-family="Arial" font-size="13px" font-style="normal" font-weight="normal" text-decoration="none" x="1539.5" y="1151">19 : false</text></g></g><g transform="translate(2,2) scale(1,1)"><path fill="none" stroke="#000000" d="M 1355 1152 L 1084 1152" stroke-miterlimit="10" stroke-dasharray="3"/></g><g transform="translate(2,2) scale(1,1)"><path fill="none" stroke="#000000" d="M 1094.162674857624 1147.7904822439841 L 1084 1152 L 1094.162674857624 1156.2095177560159" stroke-miterlimit="10"/></g><g transform="translate(2,2) scale(1,1)"><g><path fill="none" stroke="none"/><text fill="#000000" stroke="none" font-family="Arial" font-size="13px" font-style="normal" font-weight="normal" text-decoration="none" x="1191.5" y="1167">20 : false</text></g></g><g transform="translate(2,2) scale(1,1)"><path fill="none" stroke="#000000" d="M 1071 1176 L 791 1176" stroke-miterlimit="10" stroke-dasharray="3"/></g><g transform="translate(2,2) scale(1,1)"><path fill="none" stroke="#000000" d="M 801.1626748576241 1171.7904822439841 L 791 1176 L 801.1626748576241 1180.2095177560159" stroke-miterlimit="10"/></g><g transform="translate(2,2) scale(1,1)"><g><path fill="none" stroke="none"/><text fill="#000000" stroke="none" font-family="Arial" font-size="13px" font-style="normal" font-weight="normal" text-decoration="none" x="903.5" y="1191">21 : false</text></g></g><g transform="translate(2,2) scale(1,1)"><path fill="none" stroke="#000000" d="M 778 1192 L 498 1192" stroke-miterlimit="10" stroke-dasharray="3"/></g><g transform="translate(2,2) scale(1,1)"><path fill="none" stroke="#000000" d="M 508.16267485762415 1187.7904822439841 L 498 1192 L 508.16267485762415 1196.2095177560159" stroke-miterlimit="10"/></g><g transform="translate(2,2) scale(1,1)"><g><path fill="none" stroke="none"/><text fill="#000000" stroke="none" font-family="Arial" font-size="13px" font-style="normal" font-weight="normal" text-decoration="none" x="610.5" y="1207">22 : false</text></g></g><g transform="translate(2,2) scale(1,1)"><path fill="none" stroke="#000000" d="M 485 1224 L 128 1224" stroke-miterlimit="10" stroke-dasharray="3"/></g><g transform="translate(2,2) scale(1,1)"><path fill="none" stroke="#000000" d="M 138.16267485762415 1219.7904822439841 L 128 1224 L 138.16267485762415 1228.2095177560159" stroke-miterlimit="10"/></g><g transform="translate(2,2) scale(1,1)"><g><path fill="none" stroke="none"/><text fill="#000000" stroke="none" font-family="Arial" font-size="13px" font-style="normal" font-weight="normal" text-decoration="none" x="223.5" y="1239">23 : "le cours est enregistre"</text></g></g><g transform="translate(2,2) scale(1,1)"><path fill="none" stroke="#000000" d="M 2408 1280 L 1779 1280" stroke-miterlimit="10" stroke-dasharray="3"/></g><g transform="translate(2,2) scale(1,1)"><path fill="none" stroke="#000000" d="M 1789.162674857624 1275.7904822439841 L 1779 1280 L 1789.162674857624 1284.2095177560159" stroke-miterlimit="10"/></g><g transform="translate(2,2) scale(1,1)"><g><path fill="none" stroke="none"/><text fill="#000000" stroke="none" font-family="Arial" font-size="13px" font-style="normal" font-weight="normal" text-decoration="none" x="2015.5" y="1295">24 : les donnes enregistrer</text></g></g><g transform="translate(2,2) scale(1,1)"><path fill="none" stroke="#000000" d="M 1779 1352 L 1973 1352" stroke-miterlimit="10"/></g><g transform="translate(2,2) scale(1,1)"><path fill="#000000" stroke="none" d="M 1962.837325142376 1356.2095177560159 L 1973 1352 L 1962.837325142376 1347.7904822439841"/></g><g transform="translate(2,2) scale(1,1)"><path fill="none" stroke="#000000" d="M 1962.837325142376 1356.2095177560159 L 1973 1352 L 1962.837325142376 1347.7904822439841 L 1962.837325142376 1356.2095177560159" stroke-miterlimit="10"/></g><g transform="translate(2,2) scale(1,1)"><g><path fill="none" stroke="none"/><text fill="#000000" stroke="none" font-family="Arial" font-size="13px" font-style="normal" font-weight="normal" text-decoration="none" x="1782.917724609375" y="1347">25 : section = getSection(indice)</text></g></g><g transform="translate(2,2) scale(1,1)"><rect fill="#ffff91" stroke="none" x="1973" y="1352" width="13" height="28"/></g><g transform="translate(2,2) scale(1,1)"><path fill="none" stroke="#000000" d="M 1973 1352 L 1986 1352 L 1986 1380 L 1973 1380 L 1973 1352 Z Z" stroke-miterlimit="10"/></g><g transform="translate(2,2) scale(1,1)"><path fill="none" stroke="#000000" d="M 1973 1376 L 1779 1376" stroke-miterlimit="10" stroke-dasharray="3"/></g><g transform="translate(2,2) scale(1,1)"><path fill="none" stroke="#000000" d="M 1789.162674857624 1371.7904822439841 L 1779 1376 L 1789.162674857624 1380.2095177560159" stroke-miterlimit="10"/></g><g transform="translate(2,2) scale(1,1)"><g><path fill="none" stroke="none"/><text fill="#000000" stroke="none" font-family="Arial" font-size="13px" font-style="normal" font-weight="normal" text-decoration="none" x="1841.5" y="1391">26 : section</text></g></g><g transform="translate(2,2) scale(1,1)"><path fill="none" stroke="#000000" d="M 1779 1416 L 2173 1416" stroke-miterlimit="10"/></g><g transform="translate(2,2) scale(1,1)"><path fill="#000000" stroke="none" d="M 2162.837325142376 1420.2095177560159 L 2173 1416 L 2162.837325142376 1411.7904822439841"/></g><g transform="translate(2,2) scale(1,1)"><path fill="none" stroke="#000000" d="M 2162.837325142376 1420.2095177560159 L 2173 1416 L 2162.837325142376 1411.7904822439841 L 2162.837325142376 1420.2095177560159" stroke-miterlimit="10"/></g><g transform="translate(2,2) scale(1,1)"><g><path fill="none" stroke="none"/><text fill="#000000" stroke="none" font-family="Arial" font-size="13px" font-style="normal" font-weight="normal" text-decoration="none" x="1926.5" y="1411">27 : enregistrer( )</text></g></g><g transform="translate(2,2) scale(1,1)"><rect fill="#ffff91" stroke="none" x="2173" y="1416" width="13" height="296"/></g><g transform="translate(2,2) scale(1,1)"><path fill="none" stroke="#000000" d="M 2173 1416 L 2186 1416 L 2186 1712 L 2173 1712 L 2173 1416 Z Z" stroke-miterlimit="10"/></g><g transform="translate(2,2) scale(1,1)"><rect fill="#d8f2ff" stroke="none" x="64" y="112" width="2384" height="55"/></g><g transform="translate(2,2) scale(1,1)"><path fill="none" stroke="#000000" d="M 64 112 L 2448 112 L 2448 167 L 64 167 L 64 112 Z Z" stroke-miterlimit="10"/></g><g transform="translate(2,2) scale(1,1)"><path fill="none" stroke="#000000" d="M 64 112 L 64 134 L 89.1708984375 134 L 100.1708984375 123 L 100.1708984375 112 L 64 112 L 64 112" stroke-miterlimit="10"/></g><g transform="translate(2,2) scale(1,1)"><g><path fill="none" stroke="none"/><text fill="#000000" stroke="none" font-family="Arial" font-size="13px" font-style="normal" font-weight="normal" text-decoration="none" x="1215.195068359375" y="128">se Connecter Admin</text></g></g><g transform="translate(2,2) scale(1,1)"><g><path fill="none" stroke="none"/><text fill="#000000" stroke="none" font-family="Arial" font-size="13px" font-style="normal" font-weight="bold" text-decoration="none" x="68.2763671875" y="128">ref</text></g></g><g transform="translate(2,2) scale(1,1)"><path fill="none" stroke="#000000" d="M 2186 1432 L 2408 1432" stroke-miterlimit="10"/></g><g transform="translate(2,2) scale(1,1)"><path fill="#000000" stroke="none" d="M 2397.837325142376 1436.2095177560159 L 2408 1432 L 2397.837325142376 1427.7904822439841"/></g><g transform="translate(2,2) scale(1,1)"><path fill="none" stroke="#000000" d="M 2397.837325142376 1436.2095177560159 L 2408 1432 L 2397.837325142376 1427.7904822439841 L 2397.837325142376 1436.2095177560159" stroke-miterlimit="10"/></g><g transform="translate(2,2) scale(1,1)"><g><path fill="none" stroke="none"/><text fill="#000000" stroke="none" font-family="Arial" font-size="13px" font-style="normal" font-weight="normal" text-decoration="none" x="2231.5" y="1427">28 : inserer les donnes</text></g></g><g transform="translate(2,2) scale(1,1)"><rect fill="#d8f2ff" stroke="none" x="2408" y="1432" width="13" height="264"/></g><g transform="translate(2,2) scale(1,1)"><path fill="none" stroke="#000000" d="M 2408 1432 L 2421 1432 L 2421 1696 L 2408 1696 L 2408 1432 Z Z" stroke-miterlimit="10"/></g><g transform="translate(2,2) scale(1,1)"><path fill="none" stroke="#000000" d="M 2408 1496 L 2186 1496" stroke-miterlimit="10" stroke-dasharray="3"/></g><g transform="translate(2,2) scale(1,1)"><path fill="none" stroke="#000000" d="M 2196.162674857624 1491.7904822439841 L 2186 1496 L 2196.162674857624 1500.2095177560159" stroke-miterlimit="10"/></g><g transform="translate(2,2) scale(1,1)"><g><path fill="none" stroke="none"/><text fill="#000000" stroke="none" font-family="Arial" font-size="13px" font-style="normal" font-weight="normal" text-decoration="none" x="2189.5" y="1511">29 : les donne ne sont pas enregistre</text></g></g><g transform="translate(2,2) scale(1,1)"><path fill="none" stroke="#000000" d="M 2173 1520 L 1779 1520" stroke-miterlimit="10" stroke-dasharray="3"/></g><g transform="translate(2,2) scale(1,1)"><path fill="none" stroke="#000000" d="M 1789.162674857624 1515.7904822439841 L 1779 1520 L 1789.162674857624 1524.2095177560159" stroke-miterlimit="10"/></g><g transform="translate(2,2) scale(1,1)"><g><path fill="none" stroke="none"/><text fill="#000000" stroke="none" font-family="Arial" font-size="13px" font-style="normal" font-weight="normal" text-decoration="none" x="1948.5" y="1535">30 : fasle</text></g></g><g transform="translate(2,2) scale(1,1)"><path fill="none" stroke="#000000" d="M 1766 1552 L 1368 1552" stroke-miterlimit="10" stroke-dasharray="3"/></g><g transform="translate(2,2) scale(1,1)"><path fill="none" stroke="#000000" d="M 1378.162674857624 1547.7904822439841 L 1368 1552 L 1378.162674857624 1556.2095177560159" stroke-miterlimit="10"/></g><g transform="translate(2,2) scale(1,1)"><g><path fill="none" stroke="none"/><text fill="#000000" stroke="none" font-family="Arial" font-size="13px" font-style="normal" font-weight="normal" text-decoration="none" x="1538.5" y="1546">31 : false</text></g></g><g transform="translate(2,2) scale(1,1)"><path fill="none" stroke="#000000" d="M 1355 1584 L 1084 1584" stroke-miterlimit="10" stroke-dasharray="3"/></g><g transform="translate(2,2) scale(1,1)"><path fill="none" stroke="#000000" d="M 1094.162674857624 1579.7904822439841 L 1084 1584 L 1094.162674857624 1588.2095177560159" stroke-miterlimit="10"/></g><g transform="translate(2,2) scale(1,1)"><g><path fill="none" stroke="none"/><text fill="#000000" stroke="none" font-family="Arial" font-size="13px" font-style="normal" font-weight="normal" text-decoration="none" x="1191.5" y="1599">32 : false</text></g></g><g transform="translate(2,2) scale(1,1)"><path fill="none" stroke="#000000" d="M 1071 1592 L 791 1592" stroke-miterlimit="10" stroke-dasharray="3"/></g><g transform="translate(2,2) scale(1,1)"><path fill="none" stroke="#000000" d="M 801.1626748576241 1587.7904822439841 L 791 1592 L 801.1626748576241 1596.2095177560159" stroke-miterlimit="10"/></g><g transform="translate(2,2) scale(1,1)"><g><path fill="none" stroke="none"/><text fill="#000000" stroke="none" font-family="Arial" font-size="13px" font-style="normal" font-weight="normal" text-decoration="none" x="901.3310546875" y="1611">33 : false</text></g></g><g transform="translate(2,2) scale(1,1)"><path fill="none" stroke="#000000" d="M 778 1608 L 498 1608" stroke-miterlimit="10" stroke-dasharray="3"/></g><g transform="translate(2,2) scale(1,1)"><path fill="none" stroke="#000000" d="M 508.16267485762415 1603.7904822439841 L 498 1608 L 508.16267485762415 1612.2095177560159" stroke-miterlimit="10"/></g><g transform="translate(2,2) scale(1,1)"><g><path fill="none" stroke="none"/><text fill="#000000" stroke="none" font-family="Arial" font-size="13px" font-style="normal" font-weight="normal" text-decoration="none" x="610.5" y="1623">34 : false</text></g></g><g transform="translate(2,2) scale(1,1)"><path fill="none" stroke="#000000" d="M 485 1622 L 128 1622" stroke-miterlimit="10" stroke-dasharray="3"/></g><g transform="translate(2,2) scale(1,1)"><path fill="none" stroke="#000000" d="M 138.16267485762415 1617.7904822439841 L 128 1622 L 138.16267485762415 1626.2095177560159" stroke-miterlimit="10"/></g><g transform="translate(2,2) scale(1,1)"><g><path fill="none" stroke="none"/><text fill="#000000" stroke="none" font-family="Arial" font-size="13px" font-style="normal" font-weight="normal" text-decoration="none" x="223.5" y="1637">35 : "le cours est enregistre"</text></g></g><g transform="translate(2,2) scale(1,1)"><path fill="none" stroke="#000000" d="M 2408 1677 L 2186 1677" stroke-miterlimit="10" stroke-dasharray="3"/></g><g transform="translate(2,2) scale(1,1)"><path fill="none" stroke="#000000" d="M 2196.162674857624 1672.7904822439841 L 2186 1677 L 2196.162674857624 1681.2095177560159" stroke-miterlimit="10"/></g><g transform="translate(2,2) scale(1,1)"><g><path fill="none" stroke="none"/><text fill="#000000" stroke="none" font-family="Arial" font-size="13px" font-style="normal" font-weight="normal" text-decoration="none" x="2219.5" y="1692">36 : les donnes enregistrer</text></g></g><g transform="translate(2,2) scale(1,1)"><path fill="none" stroke="#000000" d="M 2173 1688 L 1779 1688" stroke-miterlimit="10" stroke-dasharray="3"/></g><g transform="translate(2,2) scale(1,1)"><path fill="none" stroke="#000000" d="M 1789.162674857624 1683.7904822439841 L 1779 1688 L 1789.162674857624 1692.2095177560159" stroke-miterlimit="10"/></g><g transform="translate(2,2) scale(1,1)"><g><path fill="none" stroke="none"/><text fill="#000000" stroke="none" font-family="Arial" font-size="13px" font-style="normal" font-weight="normal" text-decoration="none" x="1983.5" y="1683">37 : true</text></g></g><g transform="translate(2,2) scale(1,1)"><path fill="none" stroke="#000000" d="M 1766 1776 L 1368 1776" stroke-miterlimit="10" stroke-dasharray="3"/></g><g transform="translate(2,2) scale(1,1)"><path fill="none" stroke="#000000" d="M 1378.162674857624 1771.7904822439841 L 1368 1776 L 1378.162674857624 1780.2095177560159" stroke-miterlimit="10"/></g><g transform="translate(2,2) scale(1,1)"><g><path fill="none" stroke="none"/><text fill="#000000" stroke="none" font-family="Arial" font-size="13px" font-style="normal" font-weight="normal" text-decoration="none" x="1542.5" y="1791">38 : true</text></g></g><g transform="translate(2,2) scale(1,1)"><path fill="none" stroke="#000000" d="M 1355 1872 L 1084 1872" stroke-miterlimit="10" stroke-dasharray="3"/></g><g transform="translate(2,2) scale(1,1)"><path fill="none" stroke="#000000" d="M 1094.162674857624 1867.7904822439841 L 1084 1872 L 1094.162674857624 1876.2095177560159" stroke-miterlimit="10"/></g><g transform="translate(2,2) scale(1,1)"><g><path fill="none" stroke="none"/><text fill="#000000" stroke="none" font-family="Arial" font-size="13px" font-style="normal" font-weight="normal" text-decoration="none" x="1194.5" y="1887">39 : true</text></g></g><g transform="translate(2,2) scale(1,1)"><path fill="none" stroke="#000000" d="M 1071 1896 L 791 1896" stroke-miterlimit="10" stroke-dasharray="3"/></g><g transform="translate(2,2) scale(1,1)"><path fill="none" stroke="#000000" d="M 801.1626748576241 1891.7904822439841 L 791 1896 L 801.1626748576241 1900.2095177560159" stroke-miterlimit="10"/></g><g transform="translate(2,2) scale(1,1)"><g><path fill="none" stroke="none"/><text fill="#000000" stroke="none" font-family="Arial" font-size="13px" font-style="normal" font-weight="normal" text-decoration="none" x="906.5" y="1911">40 : true</text></g></g><g transform="translate(2,2) scale(1,1)"><path fill="none" stroke="#000000" d="M 778 1920 L 498 1920" stroke-miterlimit="10" stroke-dasharray="3"/></g><g transform="translate(2,2) scale(1,1)"><path fill="none" stroke="#000000" d="M 508.16267485762415 1915.7904822439841 L 498 1920 L 508.16267485762415 1924.2095177560159" stroke-miterlimit="10"/></g><g transform="translate(2,2) scale(1,1)"><g><path fill="none" stroke="none"/><text fill="#000000" stroke="none" font-family="Arial" font-size="13px" font-style="normal" font-weight="normal" text-decoration="none" x="613.5" y="1935">41 : true</text></g></g><g transform="translate(2,2) scale(1,1)"><path fill="none" stroke="#000000" d="M 485 1968 L 128 1968" stroke-miterlimit="10" stroke-dasharray="3"/></g><g transform="translate(2,2) scale(1,1)"><path fill="none" stroke="#000000" d="M 138.16267485762415 1963.7904822439841 L 128 1968 L 138.16267485762415 1972.2095177560159" stroke-miterlimit="10"/></g><g transform="translate(2,2) scale(1,1)"><g><path fill="none" stroke="none"/><text fill="#000000" stroke="none" font-family="Arial" font-size="13px" font-style="normal" font-weight="normal" text-decoration="none" x="221.5" y="1954">42 : "le cours est enregistre"</text></g></g><g transform="translate(2,2) scale(1,1)"><path fill="none" stroke="#000000" d="M 40 576 L 2480 576 L 2480 808 L 40 808 L 40 576" stroke-miterlimit="10"/></g><g transform="translate(2,2) scale(1,1)"><path fill="#d8f2ff" stroke="none" d="M 40 576 L 40 598 L 88.51904296875 598 L 99.51904296875 587 L 99.51904296875 576 L 40 576"/></g><g transform="translate(2,2) scale(1,1)"><path fill="none" stroke="#000000" d="M 40 576 L 40 598 L 88.51904296875 598 L 99.51904296875 587 L 99.51904296875 576 L 40 576 L 40 576" stroke-miterlimit="10"/></g><g transform="translate(2,2) scale(1,1)"><g><path fill="none" stroke="none"/><text fill="#000000" stroke="none" font-family="Arial" font-size="13px" font-style="normal" font-weight="bold" text-decoration="none" x="43.91455078125" y="592">break</text></g></g><g transform="translate(2,2) scale(1,1)"><g><path fill="none" stroke="none"/><text fill="#000000" stroke="none" font-family="Arial" font-size="13px" font-style="normal" font-weight="normal" text-decoration="none" x="59.5" y="625">[si il y a un erreur dans insertion des donnee]</text></g></g><g transform="translate(2,2) scale(1,1)"><path fill="none" stroke="#000000" d="M 1112 944 L 2480 944 L 2480 1832 L 1112 1832 L 1112 944" stroke-miterlimit="10"/></g><g transform="translate(2,2) scale(1,1)"><path fill="#d8f2ff" stroke="none" d="M 1112 944 L 1112 966 L 1152.578125 966 L 1163.578125 955 L 1163.578125 944 L 1112 944"/></g><g transform="translate(2,2) scale(1,1)"><path fill="none" stroke="#000000" d="M 1112 944 L 1112 966 L 1152.578125 966 L 1163.578125 955 L 1163.578125 944 L 1112 944 L 1112 944" stroke-miterlimit="10"/></g><g transform="translate(2,2) scale(1,1)"><g><path fill="none" stroke="none"/><text fill="#000000" stroke="none" font-family="Arial" font-size="13px" font-style="normal" font-weight="bold" text-decoration="none" x="1115.57177734375" y="960">loop</text></g></g><g transform="translate(2,2) scale(1,1)"><g><path fill="none" stroke="none"/><text fill="#000000" stroke="none" font-family="Arial" font-size="13px" font-style="normal" font-weight="normal" text-decoration="none" x="1131.5" y="993">[foreach(chapitre : chapitres)]</text></g></g><g transform="translate(2,2) scale(1,1)"><path fill="none" stroke="#000000" d="M 1592 1320 L 2448 1320 L 2448 1752 L 1592 1752 L 1592 1320" stroke-miterlimit="10"/></g><g transform="translate(2,2) scale(1,1)"><path fill="#d8f2ff" stroke="none" d="M 1592 1320 L 1592 1342 L 1632.578125 1342 L 1643.578125 1331 L 1643.578125 1320 L 1592 1320"/></g><g transform="translate(2,2) scale(1,1)"><path fill="none" stroke="#000000" d="M 1592 1320 L 1592 1342 L 1632.578125 1342 L 1643.578125 1331 L 1643.578125 1320 L 1592 1320 L 1592 1320" stroke-miterlimit="10"/></g><g transform="translate(2,2) scale(1,1)"><g><path fill="none" stroke="none"/><text fill="#000000" stroke="none" font-family="Arial" font-size="13px" font-style="normal" font-weight="bold" text-decoration="none" x="1595.57177734375" y="1336">loop</text></g></g><g transform="translate(2,2) scale(1,1)"><g><path fill="none" stroke="none"/><text fill="#000000" stroke="none" font-family="Arial" font-size="13px" font-style="normal" font-weight="normal" text-decoration="none" x="1611.5" y="1369">[foreach(section:sections]</text></g></g><g transform="translate(2,2) scale(1,1)"><path fill="none" stroke="#000000" d="M 40 1096 L 2456 1096 L 2456 1256 L 40 1256 L 40 1096" stroke-miterlimit="10"/></g><g transform="translate(2,2) scale(1,1)"><path fill="#d8f2ff" stroke="none" d="M 40 1096 L 40 1118 L 88.51904296875 1118 L 99.51904296875 1107 L 99.51904296875 1096 L 40 1096"/></g><g transform="translate(2,2) scale(1,1)"><path fill="none" stroke="#000000" d="M 40 1096 L 40 1118 L 88.51904296875 1118 L 99.51904296875 1107 L 99.51904296875 1096 L 40 1096 L 40 1096" stroke-miterlimit="10"/></g><g transform="translate(2,2) scale(1,1)"><g><path fill="none" stroke="none"/><text fill="#000000" stroke="none" font-family="Arial" font-size="13px" font-style="normal" font-weight="bold" text-decoration="none" x="43.91455078125" y="1112">break</text></g></g><g transform="translate(2,2) scale(1,1)"><g><path fill="none" stroke="none"/><text fill="#000000" stroke="none" font-family="Arial" font-size="13px" font-style="normal" font-weight="normal" text-decoration="none" x="59.5" y="1145">[si il y a un erreur dans insertion des donnee]</text></g></g><g transform="translate(2,2) scale(1,1)"><path fill="none" stroke="#000000" d="M 48 1464 L 2432 1464 L 2432 1648 L 48 1648 L 48 1464" stroke-miterlimit="10"/></g><g transform="translate(2,2) scale(1,1)"><path fill="#d8f2ff" stroke="none" d="M 48 1464 L 48 1486 L 96.51904296875 1486 L 107.51904296875 1475 L 107.51904296875 1464 L 48 1464"/></g><g transform="translate(2,2) scale(1,1)"><path fill="none" stroke="#000000" d="M 48 1464 L 48 1486 L 96.51904296875 1486 L 107.51904296875 1475 L 107.51904296875 1464 L 48 1464 L 48 1464" stroke-miterlimit="10"/></g><g transform="translate(2,2) scale(1,1)"><g><path fill="none" stroke="none"/><text fill="#000000" stroke="none" font-family="Arial" font-size="13px" font-style="normal" font-weight="bold" text-decoration="none" x="51.91455078125" y="1480">break</text></g></g><g transform="translate(2,2) scale(1,1)"><g><path fill="none" stroke="none"/><text fill="#000000" stroke="none" font-family="Arial" font-size="13px" font-style="normal" font-weight="normal" text-decoration="none" x="67.5" y="1513">[si il y a un erreur dans insertion des donnee]</text></g></g></g></svg>